{"glyphs":{"\u0000":{"ha":347,"x_min":0,"x_max":0,"o":""},"\r":{"ha":347,"x_min":0,"x_max":0,"o":""}," ":{"ha":347,"x_min":0,"x_max":0,"o":""},"!":{"ha":433,"x_min":76,"x_max":360,"o":"m 233 231 q 278 249 256 249 q 310 240 293 249 q 360 161 360 214 q 336 110 360 128 q 278 90 313 90 q 228 108 246 90 q 210 169 210 126 q 214 208 210 197 q 233 231 218 219 m 125 1013 q 157 1032 142 1032 q 189 1000 176 1032 q 201 911 201 968 q 250 567 201 779 q 288 371 288 404 q 276 333 288 349 q 229 310 261 310 q 190 326 206 310 q 92 685 125 399 q 76 871 76 815 q 125 1013 76 960 z "},",":{"ha":310,"x_min":71,"x_max":236,"o":"m 92 281 q 136 301 111 301 q 208 263 174 301 q 232 228 228 242 q 236 174 236 215 q 214 56 235 100 q 160 13 193 13 q 122 28 139 13 q 103 86 103 43 q 88 171 104 119 q 71 235 71 213 q 92 281 71 258 z "},".":{"ha":350,"x_min":71,"x_max":276,"o":"m 131 354 q 175 363 154 363 q 265 307 240 363 q 276 258 276 285 q 247 187 276 217 q 176 157 218 157 q 133 165 154 157 q 90 208 108 175 q 71 269 71 240 q 72 283 71 279 q 131 354 85 336 z "},"?":{"ha":688,"x_min":76,"x_max":614,"o":"m 307 194 q 321 233 307 218 q 361 249 335 249 q 435 222 399 249 q 474 165 472 196 q 453 121 474 142 q 407 100 433 100 q 337 130 367 100 q 307 194 307 160 m 263 1024 q 321 1028 294 1028 q 451 1004 378 1028 q 590 890 549 975 q 614 797 614 840 q 531 646 614 711 q 461 572 475 604 q 447 458 447 540 q 444 380 447 400 q 428 343 440 360 q 379 319 408 319 q 332 342 353 319 q 313 413 313 361 l 313 443 q 340 576 314 519 q 424 694 363 625 q 488 799 488 764 q 419 868 488 835 q 315 892 372 892 q 235 885 251 892 q 218 851 218 878 q 198 809 218 825 q 150 793 178 793 q 96 818 115 793 q 76 879 76 844 q 104 957 76 925 q 263 1024 150 1011 z "},"A":{"ha":719,"x_min":75,"x_max":650,"o":"m 501 872 q 493 935 499 935 q 430 819 488 935 q 351 647 372 703 l 333 601 l 371 601 q 465 596 401 601 l 524 590 l 513 699 q 501 872 501 818 m 492 213 q 510 331 492 222 q 528 449 528 440 q 504 457 528 457 q 468 454 499 457 q 435 453 457 453 q 371 462 415 453 q 300 471 326 471 q 242 351 286 471 q 178 199 200 235 q 131 163 157 163 q 110 165 126 163 q 75 229 75 174 q 119 418 75 289 q 273 790 168 561 q 421 1074 378 1018 l 449 1113 q 508 1110 468 1111 q 567 1107 547 1108 l 586 1058 q 650 461 650 893 q 644 256 650 304 q 614 182 638 208 q 561 161 593 161 q 513 176 533 161 q 492 213 492 190 z "},"B":{"ha":815,"x_min":76,"x_max":742,"o":"m 454 525 q 331 557 364 557 l 303 557 l 303 303 l 360 303 q 527 347 435 303 q 619 426 619 390 q 454 525 619 471 m 474 897 q 325 951 363 951 q 310 947 314 951 q 303 811 303 940 l 303 681 l 328 686 q 463 724 382 699 q 567 760 544 749 q 607 792 601 776 q 608 797 608 793 q 474 897 608 833 m 236 1068 q 303 1085 275 1085 q 487 1038 376 1085 q 658 935 597 992 q 733 806 733 865 q 717 738 733 772 q 674 679 706 713 q 614 629 642 646 q 602 619 601 622 q 615 608 603 617 q 681 553 642 593 q 729 490 719 513 q 742 418 742 465 q 718 313 742 343 q 500 200 681 261 q 399 172 428 176 q 281 167 369 167 q 133 176 172 167 q 82 217 94 186 q 76 243 76 228 q 131 299 76 283 l 167 308 l 171 650 q 186 1011 175 964 q 225 1063 196 1047 q 236 1068 229 1065 z "},"C":{"ha":932,"x_min":75,"x_max":854,"o":"m 419 925 l 489 963 q 651 960 543 961 q 813 957 758 958 l 833 931 q 854 878 854 906 q 846 846 854 863 q 820 832 840 835 q 724 829 800 829 q 556 821 619 829 q 336 707 428 801 q 253 588 292 663 q 207 463 214 514 q 204 432 204 438 q 208 416 204 424 q 215 404 211 408 q 233 386 219 400 q 499 301 292 332 q 693 263 640 281 q 746 217 746 244 q 743 200 746 211 q 709 170 736 178 q 608 163 682 163 q 529 164 560 163 q 289 190 376 168 q 147 260 201 213 q 75 443 75 324 q 85 531 75 478 q 419 925 136 776 z "},"D":{"ha":801,"x_min":71,"x_max":728,"o":"m 414 913 q 281 942 342 942 q 243 935 253 942 q 209 883 217 919 q 201 744 201 846 q 215 518 201 626 q 228 356 228 424 l 228 290 l 292 296 q 451 354 376 301 q 575 497 526 407 q 597 549 593 528 q 601 619 601 569 q 414 913 601 839 m 219 1050 q 290 1057 244 1057 q 422 1043 365 1057 q 621 931 538 1014 q 703 806 679 872 q 728 636 728 739 l 728 599 q 720 510 726 533 q 688 433 714 486 q 503 232 622 301 q 222 161 383 163 q 128 181 153 161 q 92 235 100 203 q 83 360 85 267 q 75 663 83 454 q 71 804 71 760 q 82 904 71 857 q 132 999 100 965 q 219 1050 164 1033 z "},"E":{"ha":854,"x_min":75,"x_max":775,"o":"m 410 1036 q 495 1053 472 1051 q 597 1056 518 1056 l 621 1056 q 719 1051 700 1054 q 756 1032 739 1047 q 775 996 775 1013 q 774 983 775 988 q 763 951 765 954 q 644 935 753 942 q 548 923 596 931 q 442 903 500 915 q 363 888 385 892 l 324 881 l 292 801 q 242 643 242 671 q 272 628 242 638 q 315 621 290 621 q 379 626 324 621 q 496 636 451 636 q 561 617 549 636 q 575 574 575 596 q 567 540 575 556 q 510 510 556 519 q 357 497 465 500 q 218 484 239 494 q 197 408 197 474 l 197 374 l 197 296 l 257 290 q 367 285 307 285 q 475 294 444 285 q 549 310 536 310 q 575 299 561 310 q 593 246 593 283 q 582 204 593 219 q 522 168 557 175 q 351 161 488 161 q 162 172 203 161 q 97 224 121 182 q 76 368 79 253 q 75 425 75 390 q 101 601 75 486 q 154 875 151 818 q 132 890 154 881 q 110 922 110 900 q 117 945 110 938 q 151 963 125 953 q 278 1026 206 985 q 313 1040 301 1040 q 331 1033 319 1040 q 356 1026 344 1026 q 410 1036 364 1026 z "},"F":{"ha":828,"x_min":76,"x_max":749,"o":"m 381 1096 q 563 1110 467 1110 q 665 1101 636 1110 q 726 1067 703 1090 q 749 1025 749 1044 q 746 1003 749 1022 q 726 944 740 961 q 683 926 711 926 q 638 949 656 926 q 615 966 626 963 q 571 969 604 969 l 538 969 q 368 954 457 969 l 279 940 l 269 839 q 261 736 260 738 l 264 736 l 325 742 q 429 749 385 749 q 567 721 524 749 q 594 678 594 703 q 553 616 594 629 q 365 601 513 603 l 240 601 l 236 560 q 197 343 221 440 q 157 232 174 246 q 136 225 149 225 q 85 265 101 225 q 76 322 76 286 q 104 575 76 379 q 135 874 125 726 q 157 1046 144 1019 q 219 1076 171 1071 q 240 1078 226 1076 q 381 1096 344 1090 z "},"G":{"ha":968,"x_min":75,"x_max":893,"o":"m 506 1018 q 625 1031 554 1031 q 718 1021 689 1031 q 767 994 749 1013 q 785 951 785 975 q 783 940 785 944 q 724 883 771 883 q 657 897 703 883 q 590 907 622 907 q 434 872 515 907 q 303 779 353 836 q 233 676 263 733 q 200 576 204 619 q 199 567 200 574 q 199 558 199 561 q 240 425 199 489 q 350 325 281 361 l 397 299 l 463 319 q 672 415 625 371 l 703 447 l 536 453 l 368 458 q 351 490 360 465 q 343 531 343 515 q 392 574 343 565 q 636 585 442 582 q 774 586 696 586 q 854 583 836 586 q 881 571 872 581 q 893 529 893 554 q 765 325 893 453 q 599 202 681 240 q 422 164 518 164 l 396 164 q 242 215 306 169 q 132 354 179 260 q 75 568 75 468 q 221 865 75 728 q 352 953 267 908 q 506 1018 438 999 z "},"H":{"ha":703,"x_min":69,"x_max":632,"o":"m 101 1013 q 144 1040 129 1040 q 204 763 201 1040 l 204 663 l 276 663 q 481 639 404 663 l 483 639 l 486 638 q 494 675 494 638 q 492 769 494 681 q 490 844 490 799 q 500 934 490 907 q 540 994 510 961 q 593 1024 569 1024 q 632 968 632 1024 q 631 938 632 949 q 619 551 628 907 q 609 244 615 300 q 576 189 603 189 q 569 190 575 189 q 561 190 564 190 q 517 224 535 192 q 497 324 501 250 q 492 457 493 397 q 482 518 490 517 q 335 524 469 521 l 197 528 l 192 403 q 157 111 183 188 q 124 78 147 78 q 86 103 106 78 q 73 146 76 118 q 69 282 69 174 q 71 556 69 432 l 74 983 l 101 1013 z "},"I":{"ha":735,"x_min":78,"x_max":657,"o":"m 269 988 q 372 993 303 993 q 589 974 528 993 q 657 911 657 950 q 649 885 657 900 q 613 856 636 863 q 515 849 589 850 l 440 847 l 433 801 q 415 681 429 764 q 403 460 403 600 l 403 314 l 436 308 q 490 281 467 304 q 507 251 507 264 q 503 233 507 244 q 469 199 494 210 q 376 181 444 189 q 233 144 299 171 q 136 118 161 118 q 96 135 113 118 q 78 175 78 153 q 103 225 78 203 q 268 299 146 267 q 282 485 275 300 q 311 839 292 772 l 311 842 l 313 844 q 263 861 313 856 q 165 926 165 872 q 269 988 165 972 z "},"J":{"ha":890,"x_min":75,"x_max":813,"o":"m 165 956 q 329 971 219 971 q 658 938 517 971 q 813 851 813 901 q 719 801 813 801 q 633 807 678 801 l 572 815 l 579 750 q 608 632 586 682 q 628 573 624 597 q 632 492 632 549 q 615 352 631 404 q 556 253 599 300 q 351 164 483 175 q 338 163 347 164 q 325 163 329 163 q 163 215 226 163 q 97 351 99 268 q 108 408 97 393 q 147 424 118 424 l 161 424 q 199 415 192 421 q 218 378 207 410 q 250 319 233 335 q 303 297 267 303 q 331 296 313 296 q 489 394 439 296 q 507 500 507 431 l 507 522 q 501 578 507 557 q 475 643 496 599 q 443 751 443 711 q 444 765 443 756 q 444 779 444 774 l 447 840 l 325 835 q 160 825 194 829 q 131 822 135 822 q 96 839 113 822 q 75 879 75 858 q 165 956 75 929 z "},"K":{"ha":875,"x_min":69,"x_max":796,"o":"m 122 1061 q 153 1085 139 1085 q 197 1035 172 1085 q 215 982 211 1003 q 219 908 219 961 l 219 858 l 219 732 l 238 744 q 527 904 399 847 q 725 961 656 961 q 779 944 763 961 q 796 894 796 928 q 783 849 796 867 q 740 815 769 828 q 613 776 710 803 q 508 743 542 757 q 428 699 475 729 q 301 619 378 665 l 249 589 l 293 575 q 526 449 408 536 q 671 297 643 363 q 679 261 679 278 q 662 215 679 233 q 617 197 644 197 q 577 214 600 197 q 488 289 554 231 q 388 372 422 349 q 292 425 353 396 q 196 469 200 469 q 194 339 194 469 q 192 224 194 249 q 176 182 189 199 q 132 154 154 154 q 94 182 110 154 q 71 257 78 210 q 69 322 69 267 q 79 723 69 464 q 96 1006 89 982 q 122 1061 107 1040 z "},"L":{"ha":694,"x_min":71,"x_max":617,"o":"m 83 971 q 117 986 99 986 q 166 963 142 986 q 200 904 190 940 q 210 586 210 868 l 210 303 l 233 289 q 408 267 257 272 q 582 247 558 263 q 617 186 617 222 q 615 169 617 175 q 593 131 611 142 q 531 119 575 119 q 485 121 503 119 q 242 158 351 129 q 103 219 132 186 q 90 285 93 231 q 83 535 86 339 q 74 894 78 843 q 71 932 71 928 q 83 971 71 956 z "},"M":{"ha":1032,"x_min":76,"x_max":957,"o":"m 742 1057 q 776 1068 761 1068 q 825 1035 804 1068 q 860 967 851 996 q 876 876 869 939 q 888 805 882 833 q 896 750 893 776 q 903 653 899 724 q 933 408 910 519 q 957 236 957 290 q 899 153 957 153 q 796 263 831 153 q 779 488 788 288 q 742 792 768 792 l 740 792 q 680 676 725 788 q 618 488 635 564 q 556 274 579 324 q 497 224 533 224 q 410 287 439 224 q 353 533 381 350 q 324 692 328 692 q 286 562 319 692 q 209 301 253 432 q 133 171 165 171 q 97 194 117 171 q 76 240 76 218 q 111 406 76 261 q 164 640 144 533 q 204 811 189 761 q 226 904 226 883 q 240 967 226 924 q 265 1029 254 1010 q 307 1050 278 1050 q 347 1036 329 1050 q 390 969 371 1019 q 442 779 408 918 q 489 601 485 601 q 515 661 496 601 q 630 895 547 750 q 742 1057 713 1040 z "},"N":{"ha":900,"x_min":75,"x_max":826,"o":"m 711 967 q 744 978 738 978 q 774 957 753 978 q 822 768 808 921 q 826 690 826 731 q 788 406 826 549 q 696 207 750 264 q 589 153 643 153 q 447 233 524 153 q 288 476 371 315 l 236 576 l 236 408 l 236 325 q 233 249 236 267 q 219 217 231 231 q 172 190 199 190 q 132 207 150 190 q 113 251 117 222 q 110 421 110 279 q 93 689 110 615 q 75 838 75 767 q 78 902 75 888 q 97 931 82 917 q 144 953 117 953 q 212 913 179 953 q 300 765 244 874 q 517 378 431 507 q 583 293 572 293 q 592 299 586 293 q 669 517 614 331 q 697 676 697 610 q 681 835 697 731 q 674 901 674 881 q 711 967 674 951 z "},"O":{"ha":1026,"x_min":75,"x_max":951,"o":"m 767 848 q 754 864 767 848 q 711 894 742 881 q 619 908 681 908 l 603 908 q 299 813 399 907 q 213 633 233 753 q 206 572 206 599 q 217 507 206 546 q 313 360 244 399 q 421 331 364 331 q 800 581 592 331 l 838 626 l 824 686 q 800 782 807 753 q 767 848 792 815 m 481 1049 q 565 1056 529 1056 q 817 974 713 1056 q 942 760 921 893 q 951 667 951 694 q 926 563 951 614 q 788 390 890 486 q 592 247 685 293 l 517 210 l 417 210 q 323 214 347 210 q 261 235 299 218 q 86 446 129 296 q 75 542 75 486 q 125 801 75 704 q 269 963 174 896 q 481 1049 365 1031 z "},"P":{"ha":733,"x_min":69,"x_max":656,"o":"m 471 897 q 367 917 428 917 l 338 917 q 229 908 251 917 q 192 790 192 893 l 192 725 l 256 676 q 379 604 349 604 q 442 660 407 604 q 497 769 472 708 q 522 853 522 831 q 471 897 522 872 m 196 1033 q 314 1049 239 1049 q 501 1021 429 1049 q 642 924 603 983 q 656 863 656 903 l 656 840 q 603 686 653 785 q 369 472 496 472 q 347 474 354 472 q 217 525 279 482 l 192 542 l 192 440 q 206 282 192 338 q 214 222 214 246 q 186 164 214 183 q 156 154 171 154 q 104 200 125 154 q 77 308 85 244 q 69 504 69 371 q 71 646 69 592 q 91 954 75 906 q 196 1033 107 1003 z "},"Q":{"ha":964,"x_min":75,"x_max":890,"o":"m 647 985 q 581 997 617 997 q 392 929 490 997 q 246 758 294 861 q 197 551 197 657 q 199 511 197 525 q 235 377 203 424 q 336 311 268 331 q 390 306 357 306 q 492 322 454 306 q 553 356 524 336 q 583 386 583 376 q 543 432 583 399 q 504 482 504 467 q 525 510 504 497 q 563 519 542 519 q 638 499 597 519 q 667 489 664 486 q 704 566 678 503 q 742 672 731 629 q 756 779 756 726 q 727 908 756 853 q 647 985 699 963 m 425 1085 q 495 1106 468 1101 q 583 1110 522 1110 l 597 1110 q 702 1097 667 1110 q 775 1049 738 1085 q 861 904 836 988 q 876 788 876 850 q 806 485 876 642 l 774 417 l 832 356 q 890 265 890 296 q 874 220 890 243 q 842 197 857 197 q 764 250 829 197 q 692 303 696 303 q 654 275 688 303 q 531 208 607 233 q 379 182 454 182 q 342 183 354 182 q 234 215 289 189 q 151 276 179 242 q 75 547 75 374 q 129 801 75 686 q 425 1085 228 1007 z "},"R":{"ha":646,"x_min":75,"x_max":569,"o":"m 319 892 q 288 900 303 900 q 253 888 269 900 q 217 754 238 876 q 196 599 196 629 q 204 578 196 578 l 207 578 q 218 581 208 578 q 242 589 228 585 q 269 597 257 593 q 396 668 378 628 q 400 690 400 676 q 372 806 400 735 q 319 892 344 878 m 213 1019 q 264 1029 233 1029 q 360 1006 310 1029 q 443 944 410 982 q 501 850 471 915 q 529 751 529 792 q 528 704 529 724 q 508 593 524 622 q 460 529 493 564 q 404 482 428 494 l 379 468 l 453 399 q 569 233 569 286 q 567 219 569 228 q 538 185 557 199 q 499 172 518 172 q 494 173 497 172 q 490 174 492 174 q 431 214 467 181 q 363 297 396 247 q 276 379 321 356 q 228 399 238 399 l 226 399 q 225 392 225 397 q 232 336 225 375 q 239 264 239 288 q 213 194 239 215 q 182 183 194 183 q 81 475 104 183 q 75 576 75 558 q 94 821 75 635 q 213 1019 111 974 z "},"S":{"ha":769,"x_min":76,"x_max":692,"o":"m 436 1011 q 546 1032 494 1032 q 651 1000 611 1032 q 692 914 692 968 q 676 867 692 888 q 638 847 660 847 q 568 879 619 847 q 494 908 522 908 q 475 907 482 908 q 339 794 399 899 q 311 733 311 749 q 419 672 311 726 q 551 598 507 629 q 622 528 594 567 q 654 432 654 483 q 615 319 654 374 q 506 231 575 264 q 244 172 385 172 q 164 186 190 172 q 103 242 129 204 q 76 313 76 281 q 139 382 76 382 q 171 376 161 382 q 196 346 181 369 l 219 308 l 286 314 q 497 386 414 324 q 525 439 525 408 q 494 497 525 474 q 386 547 464 521 q 228 626 275 583 q 182 736 182 669 q 253 894 182 818 q 436 1011 324 971 z "},"T":{"ha":892,"x_min":78,"x_max":814,"o":"m 214 1019 q 538 1040 322 1039 l 610 1040 q 779 1025 750 1040 q 813 978 811 1010 q 813 971 813 975 q 814 965 814 967 q 792 928 814 946 q 748 911 775 914 q 611 908 721 908 l 453 908 l 457 604 q 467 269 460 296 q 469 251 469 256 q 451 219 469 238 q 408 197 429 197 q 343 282 371 197 q 329 375 332 315 q 326 619 326 435 l 326 904 l 235 904 q 121 915 156 904 q 79 950 86 925 q 78 963 78 954 q 106 994 78 982 q 214 1019 135 1006 z "},"U":{"ha":811,"x_min":75,"x_max":736,"o":"m 617 1010 q 667 1040 643 1040 q 703 1011 689 1040 q 726 917 715 985 q 736 796 736 849 q 735 781 736 790 q 735 768 735 772 q 668 492 722 633 q 549 276 614 350 q 454 204 510 233 q 332 171 388 171 q 79 699 114 171 q 75 814 75 764 q 142 997 75 997 q 186 958 175 997 q 204 790 197 919 q 282 332 221 431 q 303 308 293 313 q 338 303 313 303 q 443 355 393 303 q 532 504 493 407 q 603 821 603 678 q 596 918 603 863 q 592 960 592 947 q 617 1010 592 981 z "},"V":{"ha":735,"x_min":78,"x_max":657,"o":"m 564 1100 q 597 1111 572 1111 q 646 1093 631 1111 q 657 1042 657 1079 q 619 790 657 969 q 571 496 590 660 q 494 214 543 265 q 443 189 469 189 q 386 246 397 189 q 342 425 371 314 q 281 613 311 546 q 158 838 251 679 q 78 1011 78 974 q 89 1039 78 1028 q 107 1049 99 1049 q 176 1000 126 1049 q 287 862 228 950 q 394 672 346 774 q 447 578 440 578 q 450 581 450 578 q 481 735 457 601 q 514 942 504 868 q 564 1100 529 1054 z "},"W":{"ha":1093,"x_min":76,"x_max":1018,"o":"m 103 997 q 140 1021 124 1021 q 178 988 161 1021 q 222 829 192 960 q 321 543 250 714 q 396 382 389 382 q 442 496 406 382 q 493 681 479 610 q 528 808 511 772 q 619 872 561 872 q 671 847 653 872 q 683 813 683 831 q 674 732 683 806 q 667 621 667 665 q 671 517 667 579 q 685 388 679 393 q 689 386 686 386 q 774 514 714 386 q 836 738 810 593 q 874 936 865 903 q 906 990 883 969 q 958 1014 929 1014 q 1003 990 985 1014 q 1018 944 1018 972 q 975 731 1018 904 q 721 192 856 263 q 671 179 696 179 q 607 204 632 179 q 572 266 590 221 q 554 335 554 311 q 550 347 554 347 q 515 281 540 347 q 465 192 497 229 q 400 147 433 156 q 389 146 396 146 q 279 276 339 146 q 132 703 219 406 q 76 935 76 892 q 103 997 76 967 z "},"X":{"ha":858,"x_min":76,"x_max":782,"o":"m 631 781 q 582 710 631 776 q 533 640 533 643 q 638 525 533 635 q 753 392 726 435 q 782 296 779 349 l 782 278 q 760 226 782 247 q 715 206 736 206 q 643 293 672 206 q 601 356 629 336 q 503 444 565 382 l 432 514 l 386 457 q 133 232 206 232 q 93 249 110 232 q 76 288 76 265 q 150 389 76 303 q 338 624 338 611 q 269 729 338 639 q 171 881 199 826 q 149 958 149 929 q 150 985 149 975 q 182 1058 158 1058 q 236 1017 201 1058 q 332 883 271 976 q 418 763 414 763 q 461 815 424 763 q 551 938 499 868 q 644 1036 604 1007 q 713 1067 683 1067 q 753 1006 753 1067 q 678 854 753 963 q 631 781 631 788 z "},"Y":{"ha":796,"x_min":79,"x_max":718,"o":"m 97 971 q 158 1032 97 1032 q 233 957 221 1032 q 342 722 247 878 q 415 619 403 619 q 419 621 418 619 q 508 772 431 632 q 604 935 574 889 q 663 1000 635 981 q 684 1013 678 1011 q 699 1006 690 1014 q 717 957 711 993 q 718 942 718 951 q 647 772 718 913 q 435 397 544 569 q 250 147 326 224 q 192 91 206 100 q 150 82 178 82 q 79 133 79 82 q 192 306 79 154 q 247 381 218 342 q 294 444 276 419 l 311 468 q 313 471 313 469 q 276 539 313 485 q 163 770 228 613 q 97 971 97 928 z "},"Z":{"ha":914,"x_min":78,"x_max":839,"o":"m 661 1006 q 703 1011 685 1011 q 750 981 729 1011 q 769 939 769 953 q 744 901 769 922 q 593 739 703 865 q 418 526 483 613 q 342 416 385 483 q 300 340 300 349 q 303 339 300 339 q 350 350 308 339 q 725 408 551 408 q 810 397 783 408 q 839 356 839 385 q 836 339 839 350 q 812 317 832 324 q 688 293 792 311 q 507 253 569 272 q 225 197 326 197 q 125 215 149 197 q 104 251 104 232 q 122 308 104 271 q 261 528 151 372 q 463 793 371 685 q 515 865 515 856 q 393 872 515 872 q 142 861 186 872 q 124 858 128 858 q 94 878 110 858 q 78 924 78 899 q 124 988 78 969 q 388 997 144 994 q 661 1006 622 997 z "},"a":{"ha":735,"x_min":76,"x_max":664,"o":"m 499 683 q 483 707 488 707 q 432 637 478 707 q 379 547 386 567 l 378 546 q 378 543 378 544 q 429 528 378 533 q 510 522 479 522 q 540 533 540 522 l 539 535 q 539 538 539 536 q 499 683 525 618 m 440 839 q 492 854 465 854 q 590 772 553 854 q 642 574 619 711 q 664 322 664 438 q 663 271 664 286 q 600 126 654 126 q 564 144 582 126 q 545 177 549 158 q 542 274 542 196 l 542 382 l 453 382 q 331 386 358 382 q 311 389 314 389 q 285 367 299 389 q 217 246 272 346 q 163 161 183 186 q 125 136 143 136 q 94 153 111 136 q 76 199 76 171 q 118 322 76 236 q 151 407 151 390 q 144 424 151 414 q 128 463 128 442 q 144 500 128 483 q 186 521 160 517 q 224 541 211 525 q 283 636 238 557 q 440 839 378 801 z "},"b":{"ha":643,"x_min":72,"x_max":569,"o":"m 406 475 q 339 496 381 496 q 232 435 276 496 q 218 400 218 417 q 225 349 218 390 q 238 294 232 304 q 271 274 244 285 q 331 263 297 263 q 363 264 350 263 q 411 274 399 268 q 435 299 424 279 q 451 364 451 325 q 406 475 451 436 m 96 886 q 121 908 111 908 q 160 881 132 908 l 189 853 l 189 600 l 226 607 q 297 614 258 614 q 490 542 413 614 q 569 356 567 471 q 564 267 569 290 q 532 211 558 242 q 476 165 506 181 q 313 136 422 136 q 268 140 285 136 q 235 144 247 144 q 210 138 221 144 q 183 128 196 128 q 147 147 167 128 q 97 268 113 186 q 75 535 82 350 q 72 686 72 651 q 96 886 72 853 z "},"c":{"ha":686,"x_min":75,"x_max":611,"o":"m 218 658 q 376 671 247 671 q 496 663 469 671 q 531 635 517 656 q 546 592 546 614 q 544 578 546 582 q 426 532 532 532 q 333 540 386 532 q 294 544 306 544 q 257 525 278 544 q 210 456 235 504 q 193 404 193 422 q 197 376 193 393 q 235 308 207 344 q 400 240 289 240 q 463 244 450 240 q 492 272 475 249 q 518 297 508 292 q 549 303 528 303 q 597 283 583 303 q 611 242 611 265 q 532 140 611 183 q 447 118 489 118 q 389 119 414 118 q 240 147 289 122 q 125 247 168 182 q 76 394 82 313 q 75 428 75 407 q 99 514 75 463 q 156 603 122 563 q 218 658 189 644 z "},"d":{"ha":608,"x_min":76,"x_max":539,"o":"m 389 451 q 303 467 369 467 q 254 461 271 467 q 200 385 200 444 q 210 357 200 365 q 247 349 219 349 q 322 356 267 349 l 401 367 l 401 404 q 389 451 401 442 m 456 886 q 493 899 472 899 q 526 885 513 899 q 539 850 539 872 q 535 825 539 838 q 525 592 525 800 l 525 496 l 525 365 q 522 221 525 253 q 511 179 519 189 q 475 161 496 161 q 440 182 461 161 q 419 218 419 203 q 317 228 419 228 q 99 286 147 228 q 80 319 83 304 q 76 375 76 335 q 93 474 76 439 q 149 547 108 507 q 228 603 190 586 q 326 619 264 619 q 385 610 369 619 q 393 607 390 607 q 401 703 401 607 q 413 825 401 786 q 456 886 425 864 z "},"e":{"ha":610,"x_min":75,"x_max":539,"o":"m 400 619 q 385 626 400 626 q 306 610 360 626 q 263 574 289 604 q 236 533 236 544 q 239 531 236 531 q 331 568 263 531 q 400 619 400 606 m 317 729 q 414 750 368 750 q 526 690 494 750 q 539 640 539 665 q 447 488 539 569 q 362 428 396 443 q 275 413 328 413 l 265 413 l 232 413 q 203 410 208 413 q 197 394 197 407 q 222 344 197 372 q 251 321 238 326 q 301 313 265 315 q 328 311 311 311 q 417 338 358 311 q 482 361 468 361 q 504 356 493 361 q 539 307 539 343 q 531 276 539 292 q 457 224 515 254 q 392 197 413 201 q 308 193 372 193 q 182 213 221 193 q 75 407 75 271 q 76 419 75 411 q 76 432 76 428 q 147 607 83 528 q 317 729 211 686 z "},"f":{"ha":583,"x_min":78,"x_max":507,"o":"m 299 1074 q 381 1094 336 1094 q 438 1076 419 1094 q 457 1018 457 1057 q 446 981 457 992 q 385 971 436 971 q 310 950 331 971 q 289 869 289 929 q 294 786 289 831 q 306 674 306 675 q 386 663 307 663 q 457 659 442 663 q 486 640 472 656 q 507 606 507 619 q 483 565 507 592 q 451 544 465 547 q 390 540 438 540 q 326 531 326 540 l 328 528 l 328 525 q 360 385 340 485 q 383 250 381 286 q 385 215 385 235 q 365 171 385 189 q 332 156 350 156 q 208 471 257 156 l 199 538 l 151 542 q 93 557 108 546 q 78 597 78 568 q 149 663 78 663 l 186 663 l 179 696 q 168 825 178 708 q 167 882 167 849 q 179 956 167 926 q 228 1020 193 986 q 299 1074 263 1054 z "},"g":{"ha":647,"x_min":76,"x_max":571,"o":"m 343 444 q 321 533 342 533 l 317 533 q 229 449 268 518 q 204 385 204 406 q 225 357 204 365 q 265 347 246 347 q 318 372 293 347 q 343 432 343 397 l 343 444 m 279 660 q 351 672 311 669 q 387 667 375 672 q 414 646 399 663 q 474 482 456 603 q 524 299 483 421 q 571 89 571 156 q 560 13 571 54 q 322 -217 500 -217 q 169 -160 222 -217 q 115 -1 115 -104 q 128 65 115 47 q 176 82 142 82 q 219 71 208 82 q 233 4 228 63 q 257 -73 240 -53 q 317 -93 274 -93 q 381 -74 356 -93 q 428 -4 406 -54 q 449 90 449 42 q 431 186 449 138 q 404 256 425 200 l 397 275 l 346 249 q 264 224 300 224 q 250 224 260 224 q 233 225 240 225 q 113 260 150 229 q 76 356 76 290 q 138 540 76 447 q 279 660 200 632 z "},"h":{"ha":597,"x_min":69,"x_max":524,"o":"m 79 975 q 118 989 89 989 q 172 969 156 989 q 186 919 183 957 q 192 719 189 881 q 199 488 194 488 q 236 507 204 488 q 303 540 278 532 q 369 549 329 549 q 417 544 403 549 q 453 521 432 539 q 497 467 485 493 q 524 286 524 418 q 519 239 524 256 q 463 188 507 188 q 422 206 440 188 q 404 296 404 224 q 393 389 404 365 q 346 415 382 413 l 338 415 q 274 386 301 415 q 213 285 246 357 q 157 178 175 204 q 119 153 139 153 q 77 210 83 153 q 69 578 71 267 l 69 706 q 79 975 69 964 z "},"i":{"ha":343,"x_min":75,"x_max":267,"o":"m 142 629 q 176 646 156 646 q 213 631 196 646 q 236 590 231 615 q 238 568 238 586 q 216 389 238 511 q 174 211 194 267 q 125 154 151 154 q 101 161 111 154 q 75 225 75 175 q 90 386 75 261 q 142 629 117 601 m 150 969 q 183 979 165 979 q 242 942 218 979 q 267 851 267 906 q 248 781 267 803 q 186 760 229 760 q 139 767 149 760 q 108 854 108 788 q 150 969 108 943 z "},"j":{"ha":501,"x_min":79,"x_max":432,"o":"m 311 588 q 340 610 326 610 q 369 593 353 610 q 412 514 403 560 q 425 310 421 468 q 426 190 426 263 q 396 -22 426 39 q 214 -128 342 -128 q 167 -124 179 -128 q 136 -100 156 -119 q 79 74 79 -43 q 93 141 79 121 q 140 161 107 161 q 185 146 174 161 q 201 78 196 131 q 217 11 210 18 q 235 4 224 4 q 276 32 256 4 q 292 88 290 50 q 296 311 294 125 q 299 526 297 479 q 311 588 301 574 m 317 894 q 350 900 332 900 q 408 878 386 900 q 432 815 432 854 q 413 756 432 782 q 367 733 394 733 q 357 734 364 733 q 344 735 350 735 q 300 742 311 738 q 275 768 289 747 q 256 819 256 796 q 279 867 256 847 q 317 894 300 888 z "},"k":{"ha":661,"x_min":75,"x_max":585,"o":"m 93 947 q 125 969 110 969 q 150 956 136 969 q 215 744 190 915 q 225 683 219 715 q 234 629 231 650 q 238 604 238 608 q 244 596 239 596 q 328 671 254 596 q 454 765 422 765 q 479 754 465 765 q 496 701 496 738 q 488 662 496 678 q 453 613 481 646 q 378 532 401 551 q 347 494 347 504 q 407 449 347 486 q 534 353 483 399 q 585 290 585 307 q 563 252 585 272 q 522 232 542 232 q 447 264 503 232 q 338 336 390 296 q 260 394 268 389 q 256 396 258 396 q 250 371 250 396 q 253 303 250 367 q 256 239 256 250 q 246 174 256 194 q 233 150 239 156 q 214 144 226 144 q 206 145 213 144 q 196 146 200 146 q 130 192 150 149 q 110 333 110 236 q 113 408 110 353 q 115 475 115 458 q 96 676 115 528 q 75 876 75 826 q 93 947 75 925 z "},"l":{"ha":379,"x_min":71,"x_max":301,"o":"m 88 1103 q 133 1110 92 1110 l 146 1110 l 200 1107 l 197 746 l 197 594 q 203 363 197 378 q 258 290 214 338 q 301 214 301 242 q 282 174 301 193 q 233 153 264 153 q 182 167 210 153 q 88 296 121 196 q 71 472 71 346 l 71 561 q 88 1103 74 1081 z "},"m":{"ha":847,"x_min":75,"x_max":774,"o":"m 272 743 q 307 751 290 751 q 382 610 378 751 q 392 536 385 536 q 411 581 399 536 q 465 703 432 664 q 550 749 497 742 q 571 750 558 750 q 617 729 592 750 q 761 335 704 656 q 774 226 774 264 q 740 153 774 174 q 717 146 726 146 q 663 204 688 146 q 606 411 639 263 q 564 590 568 581 q 558 572 563 592 q 546 514 553 551 q 461 300 515 354 q 393 265 426 265 q 319 313 353 265 q 268 447 286 361 q 254 494 258 494 q 233 375 251 492 q 196 214 215 258 q 128 144 164 144 q 90 164 110 144 q 75 208 75 181 q 76 246 75 229 q 114 436 79 292 q 165 624 149 581 q 215 692 176 650 q 272 743 253 735 z "},"n":{"ha":732,"x_min":74,"x_max":658,"o":"m 575 846 q 604 856 590 856 q 638 838 621 856 q 658 704 658 814 q 622 408 658 544 q 558 263 594 310 q 469 217 521 217 q 431 222 449 217 q 243 435 313 253 l 214 508 l 208 368 q 185 186 203 228 q 135 136 164 136 q 97 157 118 136 l 74 181 l 75 344 q 135 676 76 601 q 199 715 164 715 q 218 710 211 715 q 347 522 258 685 q 426 384 401 421 q 464 347 450 347 q 483 365 475 347 q 513 495 497 392 q 532 690 528 599 q 544 806 536 781 q 575 846 551 832 z "},"o":{"ha":719,"x_min":75,"x_max":646,"o":"m 438 603 q 350 622 381 622 q 290 607 321 622 q 219 558 249 588 q 199 526 203 539 q 194 475 194 514 l 194 439 q 198 359 194 379 q 215 319 201 339 q 354 258 258 258 q 526 471 525 258 l 526 497 q 504 564 526 542 q 438 603 482 586 m 281 739 q 358 749 310 749 q 494 722 446 749 q 579 653 540 699 q 633 561 618 607 q 646 463 646 518 q 617 307 646 372 q 533 195 583 233 q 397 139 482 157 q 339 131 356 131 q 283 143 321 131 q 190 192 243 158 q 104 258 138 225 l 75 286 l 75 403 q 96 567 75 513 q 281 739 149 694 z "},"p":{"ha":685,"x_min":75,"x_max":610,"o":"m 453 468 q 427 490 438 485 q 392 494 417 494 l 375 494 q 268 481 321 494 l 210 465 l 211 401 q 217 332 214 338 l 218 332 q 328 364 231 332 q 454 408 426 396 q 476 431 476 418 q 453 468 476 443 m 242 604 q 358 618 294 618 q 471 604 422 618 q 549 560 515 590 q 597 489 583 529 q 610 422 610 451 q 522 296 610 349 q 314 235 432 243 l 242 231 l 236 199 q 235 167 235 193 q 240 51 235 108 q 258 -157 258 -154 q 258 -167 258 -162 q 256 -175 257 -172 q 253 -181 256 -178 q 251 -185 251 -185 q 247 -190 250 -186 q 242 -194 243 -193 q 199 -217 219 -217 q 133 -157 161 -217 q 119 -94 122 -131 q 114 51 115 -57 q 97 292 111 214 q 78 429 86 354 q 75 471 75 465 q 90 519 75 499 q 151 567 107 543 q 242 604 194 592 z "},"q":{"ha":683,"x_min":75,"x_max":601,"o":"m 292 418 q 268 425 281 425 q 231 414 249 425 q 207 386 213 403 q 199 332 199 364 q 210 286 199 294 q 268 269 221 278 l 313 265 l 306 339 q 292 418 300 411 m 340 588 q 365 607 356 607 q 394 582 375 607 q 419 451 411 558 q 446 213 425 376 q 476 14 467 50 q 484 -1 479 1 q 500 -1 489 -4 q 551 10 538 10 q 583 -4 569 10 q 601 -46 601 -22 q 536 -133 601 -96 q 469 -156 500 -156 q 400 -106 428 -156 q 349 51 372 -57 q 331 138 331 128 q 271 146 331 140 q 127 201 179 151 q 75 332 75 251 q 126 483 75 425 q 265 547 176 540 q 321 557 321 550 q 340 588 321 565 z "},"r":{"ha":735,"x_min":78,"x_max":658,"o":"m 360 807 q 467 819 392 819 q 556 811 525 819 q 625 768 592 801 q 658 707 658 735 q 643 661 658 676 q 603 646 629 646 q 556 665 571 646 q 467 708 524 708 q 390 679 424 708 q 340 594 358 651 q 297 400 321 536 q 265 249 279 290 q 231 200 251 208 q 222 199 228 199 q 149 408 169 199 q 108 614 139 500 q 78 746 78 731 q 95 781 78 767 q 136 794 113 794 q 185 768 163 794 q 215 706 208 742 q 231 668 222 668 q 244 692 236 668 q 291 756 254 719 q 360 807 328 793 z "},"s":{"ha":606,"x_min":76,"x_max":533,"o":"m 358 888 q 433 896 392 896 q 515 882 492 896 q 533 849 533 874 q 515 804 533 817 q 433 781 497 792 q 267 710 317 760 l 243 686 l 333 638 q 448 576 415 594 q 504 534 481 558 q 531 493 528 510 q 533 438 533 476 q 524 361 533 389 q 488 306 514 333 q 339 258 442 258 q 322 259 333 258 q 303 260 310 260 q 168 289 224 265 q 76 368 76 331 q 97 407 76 389 l 118 426 l 210 396 q 329 364 300 364 q 398 382 371 364 q 425 426 425 400 q 421 447 425 436 q 321 513 411 469 q 140 643 164 588 q 132 682 132 661 q 196 801 132 743 q 358 888 260 860 z "},"t":{"ha":794,"x_min":78,"x_max":718,"o":"m 385 1007 q 408 1022 393 1022 q 444 1000 426 1022 q 459 965 456 985 q 463 886 463 944 l 463 794 l 510 794 q 620 785 560 794 q 697 764 681 775 q 718 724 718 750 q 700 685 718 701 q 654 674 688 674 q 572 676 611 674 l 463 682 l 464 578 q 465 512 464 540 q 468 455 465 483 q 473 413 471 426 q 481 362 475 399 q 489 308 486 325 q 494 253 494 274 q 485 219 494 233 q 443 197 471 197 q 408 213 422 197 q 380 290 389 233 q 365 488 371 346 q 357 679 358 678 q 256 681 357 681 q 132 691 169 681 q 83 728 94 701 q 78 749 78 739 q 88 772 78 758 q 115 792 97 789 q 229 794 133 794 l 357 794 l 357 838 q 367 933 357 875 q 385 1007 376 990 z "},"u":{"ha":615,"x_min":75,"x_max":544,"o":"m 182 574 q 214 589 201 589 q 244 556 232 589 q 251 528 251 538 q 228 450 251 511 q 199 318 199 375 q 210 272 199 285 q 264 258 222 258 q 304 263 293 258 q 333 289 315 268 q 364 340 361 322 q 410 544 397 506 q 446 582 422 582 l 454 582 q 515 513 494 578 q 542 307 535 447 q 544 222 544 229 q 528 160 544 181 q 490 136 508 136 q 451 157 472 136 l 431 178 l 400 161 q 254 136 360 136 q 186 143 207 136 q 75 299 75 174 q 78 343 75 313 q 182 574 97 500 z "},"v":{"ha":613,"x_min":76,"x_max":538,"o":"m 426 628 q 485 656 451 656 q 528 633 514 656 q 538 607 538 617 q 528 558 538 603 q 454 349 504 464 q 365 188 404 235 q 286 139 329 139 q 218 183 246 139 q 164 317 201 206 q 101 486 129 419 q 76 567 76 544 q 89 600 76 581 q 132 619 101 619 q 192 581 164 619 q 257 447 221 542 q 304 335 297 342 l 306 335 q 340 400 314 335 q 383 529 367 465 q 426 628 401 601 z "},"w":{"ha":761,"x_min":75,"x_max":690,"o":"m 576 688 q 601 707 585 707 q 658 664 628 707 q 689 563 686 625 q 690 548 689 558 q 690 532 690 538 q 665 351 690 439 q 603 222 640 263 q 567 193 579 199 q 526 188 556 188 q 485 193 497 188 q 454 218 472 199 q 414 296 429 249 q 392 349 399 342 q 383 342 389 351 q 371 317 378 333 q 308 222 347 257 q 231 186 269 186 q 165 218 194 186 q 103 363 131 258 q 75 569 76 468 q 85 650 75 628 q 124 672 96 672 q 162 663 149 672 q 189 628 175 654 q 217 527 201 603 q 233 415 233 451 q 239 392 233 392 q 276 460 247 392 q 396 593 332 593 q 444 583 431 593 q 510 454 483 564 q 532 386 525 390 l 533 386 q 564 583 547 386 q 576 688 572 676 z "},"x":{"ha":575,"x_min":78,"x_max":500,"o":"m 88 646 q 118 664 97 664 q 225 600 156 664 q 275 567 263 567 q 281 575 281 567 q 315 619 281 585 q 385 654 350 654 q 433 635 419 654 q 446 601 446 618 q 408 511 446 576 q 376 443 376 453 q 386 424 376 436 q 500 243 500 278 q 484 203 500 219 q 442 188 468 188 q 406 199 424 188 q 347 253 389 211 l 283 317 l 239 269 q 172 224 193 224 q 138 240 156 224 q 111 281 111 261 q 149 358 111 303 q 192 429 192 424 q 135 507 192 438 q 78 613 78 579 q 88 646 78 626 z "},"y":{"ha":550,"x_min":76,"x_max":475,"o":"m 392 629 q 443 653 424 653 q 465 643 456 653 q 475 614 475 633 q 411 413 475 571 q 319 128 349 257 q 178 -137 265 -137 q 138 -116 160 -137 q 117 -78 117 -94 q 161 97 117 -56 l 204 253 l 167 329 q 102 472 128 401 q 76 576 76 543 q 78 588 76 585 q 98 629 83 614 q 129 644 113 644 q 168 622 150 644 q 203 546 186 600 q 243 465 221 496 l 265 439 l 288 492 q 392 629 332 585 z "},"z":{"ha":676,"x_min":75,"x_max":601,"o":"m 103 526 q 85 557 85 543 q 182 624 85 596 q 371 653 279 653 l 394 653 q 471 633 444 653 q 503 583 503 613 q 383 393 503 535 l 331 331 l 443 326 q 544 320 524 324 q 579 303 564 317 q 601 258 601 282 q 588 224 601 239 q 364 189 557 189 q 325 190 351 189 q 283 190 299 190 q 136 196 167 193 q 93 210 106 199 q 75 244 75 225 q 124 321 75 263 q 239 439 174 379 l 307 500 l 214 504 q 103 526 122 510 z "}," ":{"ha":347,"x_min":0,"x_max":0,"o":""}}}
